# xmcd
#
# Track frame offsets: 
#        150
#        30700
#        67360
#        105396
#        132452
#        162297
#        195806
#        231769
#        262763
#        298730
#
# Disc length: 4557 seconds
#
# Revision: 6
# Processed by: cddbd v1.5.2PL0 Copyright (c) Steve Scherf et al.
# Submitted via: ExactAudioCopyFreeDBPlugin 1.0
#
DISCID=8911cb0a
DTITLE=Various Artist - Philadelphia International:  The Re-Edits
DYEAR=2012
DGENRE=Soul
TTITLE0=Jean Carn - If You Wanna Go Back (re-edit by Morning Star)
TTITLE1=The O'Jays - Darlin' Darlin' Baby (re-work by Deep&Disco)
TTITLE2=The Jones Girls - You're Gonna Make Me Love Somebody Else (re-
TTITLE2=edit by Henry Greenwood)
TTITLE3=Archie Bell and The Drells - Strategy (re-edit by Touchsoul)
TTITLE4=Billy Paul - Let the Dollar Circulate (extended re-rub by Scra
TTITLE4=tchNSniff)
TTITLE5=Dee Dee Sharp - Easy Money (2004 re-edit by Todd Terje)
TTITLE6=Jean Carn - Was That All it Was (re-edit by Morning Star)
TTITLE7=The Jones Girls - Nights Over Egypt (re-edit by Womack and TOT)
TTITLE8=Archie Bell and The Drells - Don't Let Love Get You Down (re-edi
TTITLE8=t by Ed Zone)
TTITLE9=Harold Melvin and The Blue Notes - Wake Up Everybody (re-edit by
TTITLE9=DJ Apt One)
EXTD=
EXTT0=
EXTT1=
EXTT2=
EXTT3=
EXTT4=
EXTT5=
EXTT6=
EXTT7=
EXTT8=
EXTT9=
PLAYORDER=
